<mxfile host="app.diagrams.net" modified="2023-10-13T08:02:01.709Z" agent="Mozilla/5.0 (Windows NT 10.0; Win64; x64) AppleWebKit/537.36 (KHTML, like Gecko) Chrome/117.0.0.0 Safari/537.36" etag="TV8fSBWpQK-Y4KZJWjoK" version="22.0.4" type="github">
  <diagram name="Страница — 1" id="Xos-JkOTNvFh_b-qJl0H">
    <mxGraphModel dx="989" dy="523" grid="1" gridSize="10" guides="1" tooltips="1" connect="1" arrows="1" fold="1" page="1" pageScale="1" pageWidth="827" pageHeight="1169" math="0" shadow="0">
      <root>
        <mxCell id="0" />
        <mxCell id="1" parent="0" />
        <mxCell id="PnW3qSKL4nJbsWGuZbER-1" value="Пользователь" style="shape=umlActor;verticalLabelPosition=bottom;verticalAlign=top;html=1;outlineConnect=0;" vertex="1" parent="1">
          <mxGeometry x="50" y="180" width="30" height="60" as="geometry" />
        </mxCell>
        <mxCell id="PnW3qSKL4nJbsWGuZbER-7" style="edgeStyle=orthogonalEdgeStyle;rounded=0;orthogonalLoop=1;jettySize=auto;html=1;exitX=0.25;exitY=0;exitDx=0;exitDy=0;" edge="1" parent="1" source="PnW3qSKL4nJbsWGuZbER-2">
          <mxGeometry relative="1" as="geometry">
            <mxPoint x="260" y="173" as="targetPoint" />
          </mxGeometry>
        </mxCell>
        <mxCell id="PnW3qSKL4nJbsWGuZbER-2" value="ИК-пульт&lt;br&gt;" style="rounded=0;whiteSpace=wrap;html=1;rotation=90;" vertex="1" parent="1">
          <mxGeometry x="110" y="170" width="120" height="65" as="geometry" />
        </mxCell>
        <mxCell id="PnW3qSKL4nJbsWGuZbER-5" value="" style="group;movable=1;resizable=1;rotatable=1;deletable=1;editable=1;locked=0;connectable=1;" vertex="1" connectable="0" parent="1">
          <mxGeometry x="270" y="155" width="80" height="110" as="geometry" />
        </mxCell>
        <mxCell id="PnW3qSKL4nJbsWGuZbER-3" value="" style="shape=partialRectangle;whiteSpace=wrap;html=1;top=0;bottom=0;fillColor=none;movable=1;resizable=1;rotatable=1;deletable=1;editable=1;locked=0;connectable=1;" vertex="1" parent="PnW3qSKL4nJbsWGuZbER-5">
          <mxGeometry x="17.93777777777778" y="62.85714285714287" width="20" height="47.14285714285715" as="geometry" />
        </mxCell>
        <mxCell id="PnW3qSKL4nJbsWGuZbER-4" value="ИК-приемник&lt;br&gt;" style="ellipse;whiteSpace=wrap;html=1;aspect=fixed;movable=1;resizable=1;rotatable=1;deletable=1;editable=1;locked=0;connectable=1;" vertex="1" parent="PnW3qSKL4nJbsWGuZbER-5">
          <mxGeometry x="-8.49" y="-9.99" width="72.85" height="72.85" as="geometry" />
        </mxCell>
        <mxCell id="PnW3qSKL4nJbsWGuZbER-6" style="edgeStyle=orthogonalEdgeStyle;rounded=0;orthogonalLoop=1;jettySize=auto;html=1;exitX=0.5;exitY=0.5;exitDx=0;exitDy=0;exitPerimeter=0;entryX=0.563;entryY=0.962;entryDx=0;entryDy=0;entryPerimeter=0;" edge="1" parent="1" source="PnW3qSKL4nJbsWGuZbER-1" target="PnW3qSKL4nJbsWGuZbER-2">
          <mxGeometry relative="1" as="geometry" />
        </mxCell>
        <mxCell id="PnW3qSKL4nJbsWGuZbER-8" value="Микроконтроллер" style="rounded=0;whiteSpace=wrap;html=1;" vertex="1" parent="1">
          <mxGeometry x="380" y="90" width="180" height="190" as="geometry" />
        </mxCell>
        <mxCell id="PnW3qSKL4nJbsWGuZbER-9" style="edgeStyle=orthogonalEdgeStyle;rounded=0;orthogonalLoop=1;jettySize=auto;html=1;exitX=1;exitY=0.5;exitDx=0;exitDy=0;" edge="1" parent="1" source="PnW3qSKL4nJbsWGuZbER-4">
          <mxGeometry relative="1" as="geometry">
            <mxPoint x="380" y="181" as="targetPoint" />
          </mxGeometry>
        </mxCell>
        <mxCell id="PnW3qSKL4nJbsWGuZbER-13" value="Источник элетроэнергии&lt;br&gt;" style="shape=partialRectangle;whiteSpace=wrap;html=1;bottom=0;top=0;fillColor=none;verticalAlign=bottom;labelPosition=center;verticalLabelPosition=top;align=center;" vertex="1" parent="1">
          <mxGeometry x="700" y="155" width="20" height="60" as="geometry" />
        </mxCell>
        <mxCell id="PnW3qSKL4nJbsWGuZbER-15" style="edgeStyle=orthogonalEdgeStyle;rounded=0;orthogonalLoop=1;jettySize=auto;html=1;exitX=0;exitY=0.5;exitDx=0;exitDy=0;entryX=1.018;entryY=0.501;entryDx=0;entryDy=0;entryPerimeter=0;" edge="1" parent="1" source="PnW3qSKL4nJbsWGuZbER-13" target="PnW3qSKL4nJbsWGuZbER-8">
          <mxGeometry relative="1" as="geometry" />
        </mxCell>
      </root>
    </mxGraphModel>
  </diagram>
</mxfile>
